<svg width="40" height="40" viewBox="0 0 40 40" fill="none" xmlns="http://www.w3.org/2000/svg">
<path d="M25.3333 5C26.2126 5.01252 27.0512 5.37195 27.6667 6L34 12.3333C34.628 12.9488 34.9875 13.7874 35 14.6667V31.6667C35 32.5507 34.6488 33.3986 34.0237 34.0237C33.3986 34.6488 32.5507 35 31.6667 35H8.33333C7.44928 35 6.60143 34.6488 5.97631 34.0237C5.35119 33.3986 5 32.5507 5 31.6667V8.33333C5 7.44928 5.35119 6.60143 5.97631 5.97631C6.60143 5.35119 7.44928 5 8.33333 5H25.3333Z" stroke="black" stroke-width="3" stroke-linecap="round" stroke-linejoin="round"/>
<path d="M28.3332 35V23.3333C28.3332 22.8913 28.1576 22.4674 27.845 22.1548C27.5325 21.8423 27.1085 21.6667 26.6665 21.6667H13.3332C12.8911 21.6667 12.4672 21.8423 12.1547 22.1548C11.8421 22.4674 11.6665 22.8913 11.6665 23.3333V35M11.6665 5V11.6667C11.6665 12.1087 11.8421 12.5326 12.1547 12.8452C12.4672 13.1577 12.8911 13.3333 13.3332 13.3333H24.9998" stroke="black" stroke-width="3" stroke-linecap="round" stroke-linejoin="round"/>
</svg>
