<svg width="58" height="50" viewBox="0 0 58 50" fill="none" xmlns="http://www.w3.org/2000/svg">
<g clip-path="url(#clip0_81_1105)">
<path d="M53.3042 10.8955L35.4837 3.57675C31.561 1.55683 26.6786 1.52099 22.7165 3.483L4.69545 10.8955C4.62782 10.9247 4.5577 10.9559 4.49245 10.9892C0.215855 13.0973 -1.26881 17.7948 1.17648 21.4815C2.00536 22.7313 3.2246 23.7554 4.69545 24.4372L9.66657 26.4789V36.6872C9.66951 41.2519 13.115 45.2848 18.1708 46.6414C21.6892 47.5188 25.3374 47.9484 28.9999 47.9164C32.6619 47.9517 36.3101 47.5258 39.8291 46.6518C44.8849 45.2953 48.3304 41.2624 48.3333 36.6976V26.4747L53.1667 24.483V41.6663C53.1667 42.8169 54.2486 43.7496 55.5833 43.7496C56.918 43.7496 57.9999 42.8169 57.9999 41.6663V16.6663C58.016 14.2199 55.7753 11.96 53.3042 10.8955ZM43.4998 36.6976C43.5011 39.428 41.4462 41.8432 38.4248 42.6622C35.361 43.4169 32.1861 43.7832 28.9998 43.7497C25.8136 43.7832 22.6386 43.4169 19.5748 42.6622C16.5535 41.8431 14.4986 39.428 14.4998 36.6976V28.4643L22.5159 31.756C24.4938 32.7685 26.7528 33.3006 29.0531 33.2956C31.2426 33.309 33.3953 32.8093 35.2808 31.8498L43.4998 28.4642V36.6976ZM51.2332 20.6768L33.0067 28.1767C30.4653 29.4524 27.3153 29.4163 24.8142 28.083L6.98158 20.7705C4.99383 19.8465 4.25139 17.7083 5.32325 15.9948C5.68575 15.4153 6.22928 14.935 6.8922 14.608L25.0051 7.1497C27.5472 5.87685 30.6955 5.91288 33.1976 7.24345L51.0181 14.5622C52.3286 15.1895 53.1486 16.3742 53.1665 17.6664C53.1688 18.8904 52.4377 20.0287 51.2332 20.6768Z" fill="#374957"/>
</g>
<defs>
<clipPath id="clip0_81_1105">
<rect width="58" height="50" fill="white"/>
</clipPath>
</defs>
</svg>
