<svg width="58" height="58" viewBox="0 0 58 58" fill="none" xmlns="http://www.w3.org/2000/svg">
<g clip-path="url(#clip0_81_1101)">
<path d="M50.75 58.0015H45.9167V45.8143C45.9147 43.9196 45.1612 42.1031 43.8215 40.7633C42.4818 39.4236 40.6652 38.6701 38.7706 38.6682H19.2294C17.3347 38.6701 15.5182 39.4236 14.1785 40.7633C12.8388 42.1031 12.0853 43.9196 12.0833 45.8143V58.0015H7.25V45.8143C7.25384 42.6383 8.51718 39.5935 10.7629 37.3478C13.0087 35.102 16.0535 33.8387 19.2294 33.8348H38.7706C41.9465 33.8387 44.9913 35.102 47.2371 37.3478C49.4828 39.5935 50.7462 42.6383 50.75 45.8143V58.0015Z" fill="#374957"/>
<path d="M29 28.9999C26.1322 28.9999 23.3288 28.1495 20.9442 26.5562C18.5597 24.9629 16.7012 22.6983 15.6038 20.0488C14.5063 17.3993 14.2191 14.4838 14.7786 11.6711C15.3381 8.85835 16.7191 6.2747 18.747 4.24684C20.7748 2.21897 23.3585 0.837984 26.1712 0.278498C28.9839 -0.280988 31.8994 0.00616058 34.5489 1.10363C37.1984 2.2011 39.463 4.0596 41.0563 6.44412C42.6496 8.82863 43.5 11.6321 43.5 14.4999C43.4962 18.3443 41.9673 22.0302 39.2488 24.7487C36.5304 27.4671 32.8445 28.996 29 28.9999ZM29 4.83322C27.0881 4.83322 25.2192 5.40016 23.6295 6.46234C22.0398 7.52453 20.8008 9.03426 20.0692 10.8006C19.3375 12.567 19.1461 14.5106 19.5191 16.3858C19.8921 18.2609 20.8127 19.9833 22.1646 21.3352C23.5165 22.6872 25.239 23.6078 27.1141 23.9808C28.9893 24.3538 30.9329 24.1624 32.6993 23.4307C34.4656 22.6991 35.9754 21.4601 37.0375 19.8704C38.0997 18.2807 38.6667 16.4118 38.6667 14.4999C38.6667 11.9361 37.6482 9.47737 35.8354 7.66452C34.0225 5.85167 31.5638 4.83322 29 4.83322Z" fill="#374957"/>
</g>
<defs>
<clipPath id="clip0_81_1101">
<rect width="58" height="58" fill="white"/>
</clipPath>
</defs>
</svg>
