<svg width="40" height="40" viewBox="0 0 40 40" fill="none" xmlns="http://www.w3.org/2000/svg">
<g clip-path="url(#clip0_6_481)">
<path d="M20 40C18.2319 40 16.5362 39.2976 15.286 38.0474C14.0357 36.7971 13.3333 35.1014 13.3333 33.3333V26.6667H6.66667C4.89856 26.6667 3.20286 25.9643 1.95262 24.714C0.702379 23.4638 0 21.7681 0 20C0 18.2319 0.702379 16.5362 1.95262 15.286C3.20286 14.0357 4.89856 13.3333 6.66667 13.3333H13.3333V6.66667C13.3333 4.89856 14.0357 3.20286 15.286 1.95262C16.5362 0.702379 18.2319 0 20 0C21.7681 0 23.4638 0.702379 24.714 1.95262C25.9643 3.20286 26.6667 4.89856 26.6667 6.66667V13.3333H33.3333C35.1014 13.3333 36.7971 14.0357 38.0474 15.286C39.2976 16.5362 40 18.2319 40 20C40 21.7681 39.2976 23.4638 38.0474 24.714C36.7971 25.9643 35.1014 26.6667 33.3333 26.6667H26.6667V33.3333C26.6667 35.1014 25.9643 36.7971 24.714 38.0474C23.4638 39.2976 21.7681 40 20 40ZM6.66667 16.6667C5.78261 16.6667 4.93476 17.0179 4.30964 17.643C3.68452 18.2681 3.33333 19.1159 3.33333 20C3.33333 20.8841 3.68452 21.7319 4.30964 22.357C4.93476 22.9821 5.78261 23.3333 6.66667 23.3333H15C15.442 23.3333 15.8659 23.5089 16.1785 23.8215C16.4911 24.134 16.6667 24.558 16.6667 25V33.3333C16.6667 34.2174 17.0179 35.0652 17.643 35.6904C18.2681 36.3155 19.1159 36.6667 20 36.6667C20.8841 36.6667 21.7319 36.3155 22.357 35.6904C22.9821 35.0652 23.3333 34.2174 23.3333 33.3333V25C23.3333 24.558 23.5089 24.134 23.8215 23.8215C24.134 23.5089 24.558 23.3333 25 23.3333H33.3333C34.2174 23.3333 35.0652 22.9821 35.6904 22.357C36.3155 21.7319 36.6667 20.8841 36.6667 20C36.6667 19.1159 36.3155 18.2681 35.6904 17.643C35.0652 17.0179 34.2174 16.6667 33.3333 16.6667H25C24.558 16.6667 24.134 16.4911 23.8215 16.1785C23.5089 15.8659 23.3333 15.442 23.3333 15V6.66667C23.3333 5.78261 22.9821 4.93476 22.357 4.30964C21.7319 3.68452 20.8841 3.33333 20 3.33333C19.1159 3.33333 18.2681 3.68452 17.643 4.30964C17.0179 4.93476 16.6667 5.78261 16.6667 6.66667V15C16.6667 15.442 16.4911 15.8659 16.1785 16.1785C15.8659 16.4911 15.442 16.6667 15 16.6667H6.66667Z" fill="#374957"/>
</g>
<defs>
<clipPath id="clip0_6_481">
<rect width="40" height="40" fill="white"/>
</clipPath>
</defs>
</svg>
