<svg width="65" height="57" viewBox="0 0 65 57" fill="none" xmlns="http://www.w3.org/2000/svg">
<g clip-path="url(#clip0_6_649)">
<path d="M61.3233 2.69975C59.4991 1.1034 57.0265 0.206787 54.4486 0.206787C51.8706 0.206787 49.3981 1.1034 47.5738 2.69975L3.93165 40.9479C2.68188 42.0371 1.69094 43.3326 1.01618 44.7596C0.341407 46.1865 -0.00379966 47.7166 0.000528481 49.2612V54.0893C0.000528481 54.713 0.283239 55.3112 0.786466 55.7522C1.28969 56.1932 1.97222 56.441 2.68389 56.441H8.19282C9.95515 56.4453 11.701 56.1433 13.3292 55.5523C14.9574 54.9613 16.4357 54.0932 17.6785 52.9981L61.3233 14.7475C63.144 13.1488 64.1665 10.9824 64.1665 8.72365C64.1665 6.46491 63.144 4.29845 61.3233 2.69975ZM13.8842 49.6728C12.3708 50.9903 10.326 51.7322 8.19282 51.7376H5.36725V49.2612C5.36453 48.3344 5.5716 47.4164 5.97647 46.5602C6.38134 45.704 6.97596 44.9267 7.72592 44.2732L40.8466 15.2461L47.0183 20.655L13.8842 49.6728ZM57.5264 11.4222L50.8019 17.318L44.6302 11.9208L51.3573 6.02506C51.7626 5.67068 52.2435 5.38972 52.7726 5.19822C53.3018 5.00673 53.8688 4.90845 54.4412 4.90899C55.0137 4.90954 55.5805 5.0089 56.1091 5.2014C56.6378 5.39391 57.118 5.67579 57.5224 6.03094C57.9267 6.3861 58.2473 6.80757 58.4658 7.27131C58.6843 7.73505 58.7964 8.23196 58.7958 8.73368C58.7952 9.2354 58.6818 9.7321 58.4622 10.1954C58.2425 10.6587 57.9209 11.0796 57.5156 11.434L57.5264 11.4222Z" fill="#374957"/>
</g>
<defs>
<clipPath id="clip0_6_649">
<rect width="64.4006" height="56.441" fill="white"/>
</clipPath>
</defs>
</svg>
