<svg width="81" height="71" viewBox="0 0 81 71" fill="none" xmlns="http://www.w3.org/2000/svg">
<g clip-path="url(#clip0_6_651)">
<path d="M79.7202 32.6995C76.7818 27.0844 65.2592 8.77368 40.1593 8.77368C15.0593 8.77368 3.53675 27.0844 0.598377 32.6995C0.203934 33.452 -0.000244141 34.27 -0.000244141 35.0976C-0.000244141 35.9253 0.203934 36.7433 0.598377 37.4958C3.53675 43.1051 15.0593 61.4158 40.1593 61.4158C65.2592 61.4158 76.7818 43.1051 79.7202 37.4899C80.1138 36.7383 80.3176 35.9214 80.3176 35.0947C80.3176 34.2681 80.1138 33.4512 79.7202 32.6995ZM40.1593 55.5666C19.0519 55.5666 9.20265 39.8734 6.69265 35.1269C9.20265 30.316 19.0519 14.6228 40.1593 14.6228C61.2165 14.6228 71.069 30.2487 73.6259 35.0947C71.069 39.9407 61.2165 55.5666 40.1593 55.5666Z" fill="#374957"/>
<path d="M40.1591 20.4728C36.8496 20.4728 33.6143 21.3304 30.8626 22.9372C28.1108 24.5439 25.966 26.8277 24.6995 29.4997C23.433 32.1716 23.1017 35.1118 23.7473 37.9483C24.393 40.7849 25.9867 43.3904 28.3269 45.4355C30.6671 47.4805 33.6486 48.8732 36.8946 49.4374C40.1405 50.0016 43.505 49.7121 46.5627 48.6053C49.6203 47.4985 52.2337 45.6243 54.0723 43.2196C55.911 40.8149 56.8924 37.9877 56.8924 35.0956C56.8871 31.2188 55.1224 27.5021 51.9855 24.7608C48.8485 22.0195 44.5954 20.4774 40.1591 20.4728ZM40.1591 43.8693C38.1734 43.8693 36.2322 43.3547 34.5812 42.3906C32.9301 41.4266 31.6433 40.0563 30.8834 38.4531C30.1235 36.8499 29.9246 35.0858 30.312 33.3839C30.6994 31.682 31.6556 30.1187 33.0598 28.8916C34.4639 27.6646 36.2528 26.829 38.2004 26.4905C40.148 26.1519 42.1667 26.3257 44.0012 26.9898C45.8358 27.6538 47.4038 28.7784 48.507 30.2212C49.6102 31.664 50.1991 33.3603 50.1991 35.0956C50.1991 37.4225 49.1413 39.6541 47.2584 41.2995C45.3756 42.9449 42.8219 43.8693 40.1591 43.8693Z" fill="#374957"/>
</g>
<defs>
<clipPath id="clip0_6_651">
<rect width="80.3199" height="70.1894" fill="white"/>
</clipPath>
</defs>
</svg>
