<svg width="40" height="40" viewBox="0 0 40 40" fill="none" xmlns="http://www.w3.org/2000/svg">
<path d="M25.3333 5C26.2126 5.01252 27.0512 5.37195 27.6667 6L34 12.3333C34.628 12.9488 34.9875 13.7874 35 14.6667V31.6667C35 32.5507 34.6488 33.3986 34.0237 34.0237C33.3986 34.6488 32.5507 35 31.6667 35H8.33333C7.44928 35 6.60143 34.6488 5.97631 34.0237C5.35119 33.3986 5 32.5507 5 31.6667V8.33333C5 7.44928 5.35119 6.60143 5.97631 5.97631C6.60143 5.35119 7.44928 5 8.33333 5H25.3333Z" stroke="black" stroke-width="3" stroke-linecap="round" stroke-linejoin="round"/>
<path d="M28.3337 35V23.3333C28.3337 22.8913 28.1581 22.4674 27.8455 22.1548C27.5329 21.8423 27.109 21.6667 26.667 21.6667H13.3337C12.8916 21.6667 12.4677 21.8423 12.1551 22.1548C11.8426 22.4674 11.667 22.8913 11.667 23.3333V35M11.667 5V11.6667C11.667 12.1087 11.8426 12.5326 12.1551 12.8452C12.4677 13.1577 12.8916 13.3333 13.3337 13.3333H25.0003" stroke="black" stroke-width="3" stroke-linecap="round" stroke-linejoin="round"/>
</svg>
