<svg width="231" height="231" viewBox="0 0 231 231" fill="none" xmlns="http://www.w3.org/2000/svg">
<g clip-path="url(#clip0_71_588)">
<path d="M110 176L114.587 162.889C115.9 159.111 115.659 154.965 113.916 151.364C112.172 147.764 109.07 145.003 105.292 143.69C101.513 142.377 97.3674 142.618 93.7668 144.361C90.1663 146.105 87.4057 149.207 86.0923 152.985L81.5001 166M175.435 79.7084L139 186M73.0621 52.6458L133.067 43.2414C135.388 42.9405 137.747 43.1839 139.957 43.9523C142.168 44.7206 144.17 45.9929 145.804 47.6684L187.04 92.2612" stroke="white" stroke-opacity="0.28" stroke-width="9" stroke-linecap="round" stroke-linejoin="round"/>
<path d="M74.9295 93.2159L44.5384 99.795C43.2735 100.068 42.1001 100.661 41.131 101.518C40.1618 102.376 39.4295 103.468 39.0045 104.69L26.6272 140.301C25.3138 144.08 25.5554 148.225 27.2986 151.826C29.0418 155.426 32.1439 158.187 35.9225 159.5L149.901 199.116C153.679 200.429 157.825 200.188 161.426 198.445C165.026 196.701 167.787 193.599 169.1 189.821L181.48 154.202C181.903 152.981 182.005 151.671 181.776 150.399C181.547 149.127 180.995 147.935 180.173 146.937L166.5 130.5M88.0001 59L50.1698 164.452" stroke="white" stroke-opacity="0.28" stroke-width="9" stroke-linecap="round" stroke-linejoin="round"/>
<path d="M117.671 108.072C125.54 110.807 134.136 106.645 136.871 98.7763C139.605 90.9078 135.444 82.312 127.575 79.5771C119.707 76.8422 111.111 81.0039 108.376 88.8725C105.641 96.741 109.803 105.337 117.671 108.072Z" stroke="white" stroke-opacity="0.28" stroke-width="9" stroke-linecap="round" stroke-linejoin="round"/>
</g>
<defs>
<clipPath id="clip0_71_588">
<rect width="181" height="181" fill="white" transform="translate(59.4233) rotate(19.1659)"/>
</clipPath>
</defs>
</svg>
