<svg width="483" height="462" viewBox="0 0 483 462" fill="none" xmlns="http://www.w3.org/2000/svg">
<g clip-path="url(#clip0_71_576)">
<path d="M242.742 198.234L238.442 197.25L64.0698 162.552L24.5262 154.486L40.3495 171.775L-18.2552 274.2C-27.5677 274.264 -36.5247 278.974 -41.481 287.637C-45.0337 293.846 -45.9743 301.212 -44.0959 308.114C-42.2175 315.017 -37.6739 320.891 -31.4648 324.444C-25.2557 327.996 -17.8895 328.937 -10.9869 327.058C-4.08427 325.18 1.78947 320.636 5.34214 314.427C10.2984 305.765 9.82062 295.656 5.15636 287.596L59.1397 193.247L78.1643 214.31L43.8387 274.302C38.3466 283.901 39.645 295.209 43.4504 304.69C47.2758 314.135 53.7044 322.94 62.0932 332.339C78.9077 351.128 103.952 370.849 134.106 388.102C164.26 405.355 193.945 416.964 218.677 421.916C231.024 424.397 241.873 425.477 251.961 423.977C262.055 422.465 272.462 417.854 277.954 408.256L312.28 348.263L351.491 356.124L391.034 364.19L364.037 334.169L245.758 201.436L242.742 198.234ZM228.711 222.758L317.522 322.129L186.85 295.919L98.0386 196.547L228.711 222.758ZM96.9679 235.759L169.802 317.241L172.825 320.431L177.125 321.415L284.267 342.91L254.543 394.86C254.476 394.977 253.746 396.362 248.367 397.153C242.994 397.963 234.247 397.853 223.9 395.787C203.25 391.632 175.537 380.731 147.501 364.69C119.466 348.649 96.0185 330.292 81.9742 314.565C74.9663 306.718 70.4338 299.214 68.4025 294.183C66.3545 289.127 67.1833 287.814 67.2502 287.697L96.9679 235.759Z" fill="white" fill-opacity="0.16"/>
</g>
<defs>
<clipPath id="clip0_71_576">
<rect width="431.567" height="431.567" fill="white" transform="translate(107.558) rotate(29.7768)"/>
</clipPath>
</defs>
</svg>
