<svg width="100" height="100" viewBox="0 0 100 100" fill="none" xmlns="http://www.w3.org/2000/svg">
<path d="M50 24.3125L49.0219 24.6094L9.95938 37.6969L1.07812 40.625L6.25 42.2812V69.625C4.38437 70.7094 3.125 72.6875 3.125 75C3.125 76.6576 3.78348 78.2473 4.95558 79.4194C6.12769 80.5915 7.7174 81.25 9.375 81.25C11.0326 81.25 12.6223 80.5915 13.7944 79.4194C14.9665 78.2473 15.625 76.6576 15.625 75C15.625 72.6875 14.3656 70.7094 12.5 69.625V44.4375L18.75 46.4844V62.5C18.75 65.0625 20.3125 67.1875 22.1688 68.6562C24.025 70.1156 26.3312 71.1469 29.1 72.0719C34.6437 73.9156 41.95 75 50 75C58.05 75 65.3563 73.9187 70.9 72.0687C73.6688 71.1469 75.975 70.1156 77.8313 68.6531C79.6875 67.1875 81.25 65.0625 81.25 62.5V46.4844L90.0406 43.5531L98.9219 40.625L90.0375 37.6938L50.975 24.6094L50 24.3125ZM50 30.8594L79.2969 40.625L50 50.3906L20.7031 40.625L50 30.8594ZM25 48.6344L49.025 56.6406L50 56.9344L50.9781 56.6375L75 48.6313V62.5C75 62.5312 75.0125 62.8937 74.0219 63.6719C73.0344 64.4531 71.2625 65.4375 68.9438 66.2125C64.3125 67.7531 57.4844 68.75 50 68.75C42.5156 68.75 35.6875 67.7562 31.0531 66.2094C28.7406 65.4375 26.9656 64.45 25.9781 63.6719C24.9844 62.8906 25 62.5312 25 62.5V48.6344Z" fill="white"/>
</svg>
