<svg width="36" height="36" viewBox="0 0 36 36" fill="none" xmlns="http://www.w3.org/2000/svg">
<path d="M31.5 18C31.5 19.7728 31.1508 21.5283 30.4724 23.1662C29.7939 24.8041 28.7995 26.2923 27.5459 27.5459C26.2923 28.7995 24.8041 29.7939 23.1662 30.4724C21.5283 31.1508 19.7728 31.5 18 31.5C16.2272 31.5 14.4717 31.1508 12.8338 30.4724C11.1959 29.7939 9.70765 28.7995 8.45406 27.5459C7.20047 26.2923 6.20606 24.8041 5.52763 23.1662C4.84919 21.5283 4.5 19.7728 4.5 18C4.5 14.4196 5.92232 10.9858 8.45406 8.45406C10.9858 5.92232 14.4196 4.5 18 4.5C21.5804 4.5 25.0142 5.92232 27.5459 8.45406C30.0777 10.9858 31.5 14.4196 31.5 18Z" stroke="black" stroke-width="2.5" stroke-linecap="round" stroke-linejoin="round"/>
<path d="M25.5 29.25C25.0245 19.9695 10.9755 19.9695 10.5 29.25M21.75 13.875C21.75 14.8696 21.3549 15.8234 20.6517 16.5267C19.9484 17.2299 18.9946 17.625 18 17.625C17.0054 17.625 16.0516 17.2299 15.3483 16.5267C14.6451 15.8234 14.25 14.8696 14.25 13.875C14.25 12.8804 14.6451 11.9266 15.3483 11.2233C16.0516 10.5201 17.0054 10.125 18 10.125C18.9946 10.125 19.9484 10.5201 20.6517 11.2233C21.3549 11.9266 21.75 12.8804 21.75 13.875Z" stroke="black" stroke-width="2.5" stroke-linecap="round" stroke-linejoin="round"/>
</svg>
