<svg width="36" height="36" viewBox="0 0 36 36" fill="none" xmlns="http://www.w3.org/2000/svg">
<path d="M28.5 9H24V7.5C24 6.70435 23.6839 5.94129 23.1213 5.37868C22.5587 4.81607 21.7956 4.5 21 4.5H15C14.2044 4.5 13.4413 4.81607 12.8787 5.37868C12.3161 5.94129 12 6.70435 12 7.5V9H7.5C6.30653 9 5.16193 9.47411 4.31802 10.318C3.47411 11.1619 3 12.3065 3 13.5V27C3 28.1935 3.47411 29.3381 4.31802 30.182C5.16193 31.0259 6.30653 31.5 7.5 31.5H28.5C29.6935 31.5 30.8381 31.0259 31.682 30.182C32.5259 29.3381 33 28.1935 33 27V13.5C33 12.3065 32.5259 11.1619 31.682 10.318C30.8381 9.47411 29.6935 9 28.5 9ZM15 7.5H21V9H15V7.5ZM30 27C30 27.3978 29.842 27.7794 29.5607 28.0607C29.2794 28.342 28.8978 28.5 28.5 28.5H7.5C7.10218 28.5 6.72064 28.342 6.43934 28.0607C6.15804 27.7794 6 27.3978 6 27V18.585L13.02 21C13.1793 21.0214 13.3407 21.0214 13.5 21H22.5C22.6627 20.9968 22.8241 20.9716 22.98 20.925L30 18.585V27ZM30 15.42L22.26 18H13.74L6 15.42V13.5C6 13.1022 6.15804 12.7206 6.43934 12.4393C6.72064 12.158 7.10218 12 7.5 12H28.5C28.8978 12 29.2794 12.158 29.5607 12.4393C29.842 12.7206 30 13.1022 30 13.5V15.42Z" fill="black"/>
</svg>
