<svg width="289" height="289" viewBox="0 0 289 289" fill="none" xmlns="http://www.w3.org/2000/svg">
<path d="M88.7497 180.444C75.2213 172.095 65.5636 158.714 61.901 143.245C58.2385 127.775 60.8713 111.484 69.2201 97.956C77.5689 84.4276 90.9499 74.7699 106.419 71.1074C121.889 67.4449 138.18 70.0776 151.708 78.4264C165.236 86.7752 174.894 100.156 178.557 115.626C182.219 131.095 179.586 147.386 171.238 160.914C162.889 174.443 149.508 184.1 134.038 187.763C118.569 191.425 102.278 188.793 88.7497 180.444Z" stroke="white" stroke-opacity="0.29" stroke-width="7" stroke-linecap="round" stroke-linejoin="round"/>
<path d="M178.795 169.164L175.657 168.823C185.072 170.008 183.073 168.481 187.582 171.263C192.092 174.046 193.447 178.518 194.668 183.675M194.668 183.675L196.969 193.396C198.19 198.553 197.313 203.983 194.53 208.492C191.747 213.002 187.286 216.221 182.13 217.442L104.359 235.855C99.203 237.075 93.7727 236.198 89.2633 233.415C84.7538 230.632 81.5346 226.172 80.3137 221.015L78.0121 211.294C76.7913 206.137 77.6689 200.707 80.4518 196.198C83.2347 191.688 84.1068 190.058 89.2633 188.838M194.668 183.675C202.905 180.527 210.298 175.508 216.264 169.014C222.23 162.521 226.606 154.73 229.046 146.256C231.487 137.783 231.925 128.858 230.327 120.186C228.729 111.514 225.137 103.331 219.837 96.2843M120.229 129.435L120.252 129.532" stroke="white" stroke-opacity="0.29" stroke-width="7" stroke-linecap="round" stroke-linejoin="round"/>
<path d="M203.117 89.2783C203.728 91.8566 205.337 94.0867 207.592 95.4782C209.847 96.8697 212.562 97.3084 215.14 96.698C217.719 96.0876 219.949 94.478 221.34 92.2233C222.732 89.9685 223.17 87.2534 222.56 84.6751C221.95 82.0969 220.34 79.8667 218.085 78.4753C215.83 77.0838 213.115 76.645 210.537 77.2554C207.959 77.8658 205.729 79.4755 204.337 81.7302C202.946 83.9849 202.507 86.7001 203.117 89.2783Z" stroke="white" stroke-opacity="0.29" stroke-width="7" stroke-linecap="round" stroke-linejoin="round"/>
</svg>
