<svg width="183" height="214" viewBox="0 0 183 214" fill="none" xmlns="http://www.w3.org/2000/svg">
<g clip-path="url(#clip0_71_581)">
<path d="M65.3311 22.9025L134.039 167.399L37.7076 213.204L-31 68.7076L65.3311 22.9025ZM60.2785 37.1162L-16.7864 73.7602L42.7602 198.991L119.825 162.347L60.2785 37.1162ZM11.4048 95.7888L59.5703 72.8862C64.3869 70.596 68.9674 80.2291 64.1508 82.5193L15.9853 105.422C11.1687 107.712 6.58823 98.079 11.4048 95.7888ZM20.5658 115.055L68.7313 92.1524C73.5479 89.8622 78.1284 99.4953 73.3118 101.786L25.1463 124.688C20.3297 126.978 15.7492 117.345 20.5658 115.055ZM29.7268 134.321L77.8923 111.419C82.7089 109.128 87.2894 118.762 82.4728 121.052L34.3073 143.954C29.4908 146.245 24.9103 136.611 29.7268 134.321ZM38.8878 153.587L87.0533 130.685C91.8699 128.395 96.4504 138.028 91.6338 140.318L43.4683 163.221C38.6518 165.511 34.0713 155.878 38.8878 153.587ZM134.511 143.552C141.618 146.079 160.884 136.918 163.41 129.811C163.41 129.811 162.938 153.658 158.121 155.948C153.305 158.238 134.511 143.552 134.511 143.552ZM88.7057 47.2214C90.9959 52.0379 119.895 38.2964 117.605 33.4798L158.83 120.178C161.12 124.994 132.22 138.736 129.93 133.919L88.7057 47.2214ZM89.4138 11.4513C74.9642 18.322 77.2544 23.1386 79.5447 27.9551L84.1252 37.5882C86.4154 42.4048 115.315 28.6633 113.025 23.8467L108.444 14.2136C106.154 9.39707 103.864 4.58052 89.4138 11.4513Z" fill="white" fill-opacity="0.24"/>
</g>
<defs>
<clipPath id="clip0_71_581">
<rect width="160" height="160" fill="white" transform="translate(-31 68.7076) rotate(-25.4309)"/>
</clipPath>
</defs>
</svg>
