<svg width="189" height="189" viewBox="0 0 189 189" fill="none" xmlns="http://www.w3.org/2000/svg">
<g clip-path="url(#clip0_71_579)">
<path d="M86.7106 51.4481L65.0005 38.0933L74.0341 23.5958C74.7539 22.4571 75.8944 21.6488 77.2073 21.3471C78.5202 21.0454 79.8991 21.2747 81.0438 21.985L94.0432 30.03C94.6104 30.3781 95.1033 30.8349 95.4936 31.3739C95.8839 31.913 96.1639 32.5239 96.3176 33.1714C96.4714 33.819 96.4957 34.4905 96.3893 35.1475C96.2829 35.8044 96.0479 36.434 95.6977 36.9999L86.7106 51.4481ZM21.529 109.539C21.5234 108.59 21.7849 107.658 22.2837 106.851L59.4727 47.0024L81.1731 60.3542L43.9841 120.203C43.4831 121.012 42.7641 121.663 41.9095 122.082L23.8787 130.888C23.6466 130.999 23.3903 131.05 23.1334 131.036C22.8764 131.023 22.627 130.945 22.4081 130.809C22.1891 130.674 22.0076 130.486 21.8801 130.263C21.7527 130.039 21.6834 129.787 21.6786 129.53L21.529 109.539ZM125.949 77.5242C104.158 70.977 99.0767 61.5308 105.624 39.7394C127.415 46.2867 132.497 55.7329 125.949 77.5242ZM89.1577 150.776C75.2781 148.823 63.8466 125.157 66.124 103.73L84.2901 74.511C89.1729 72.2823 94.5867 71.9765 99.5841 73.478C105.011 75.0772 109.806 78.3223 113.309 82.7651C114.553 84.2881 116.23 85.3973 118.119 85.9459C120.008 86.4945 122.018 86.4565 123.885 85.8371C128.886 84.0373 134.334 83.9003 139.419 85.4464C146.876 87.687 153.908 94.9634 155.778 103.043C162.809 133.624 124.692 164.546 106.656 156.044C105.844 155.61 105.102 155.057 104.457 154.401C102.805 152.816 100.8 151.647 98.6079 150.988C96.4157 150.33 94.0984 150.201 91.8467 150.612C90.9635 150.8 90.0572 150.855 89.1577 150.776Z" fill="white" fill-opacity="0.1"/>
</g>
<defs>
<clipPath id="clip0_71_579">
<rect width="151.691" height="151.691" fill="white" transform="translate(43.6485) rotate(16.723)"/>
</clipPath>
</defs>
</svg>
