<svg width="255" height="255" viewBox="0 0 255 255" fill="none" xmlns="http://www.w3.org/2000/svg">
<g clip-path="url(#clip0_71_593)">
<path d="M197.048 76.0991C192.865 70.052 187.765 64.694 181.931 60.2183C180.256 29.6931 142.195 20.0791 125.859 44.0405C118.167 43.6417 111.085 43.4203 107.378 43.3195C74.4656 42.0019 38.9053 61.4266 28.0719 111.15L14.2532 174.576C8.69092 200.106 38.2438 210.151 67.8882 216.61L97.6467 223.093C108.402 225.437 119.329 227.322 129.174 227.589C168.481 231.293 190.245 224.817 193.84 208.314L193.996 207.6C204.71 206.81 212.871 203.38 214.638 195.269L225.51 145.366C232.961 111.168 218.204 87.0054 197.048 76.0991ZM166.334 51.042C161.934 49.1259 157.356 47.6459 152.667 46.6233C150.15 46.075 146.581 45.6081 142.518 45.2113C146.456 42.852 151.165 42.1411 155.624 43.2327C160.083 44.3243 163.931 47.1305 166.334 51.042ZM157.38 205.759C153.951 221.496 136.514 224.728 99.0647 216.569L69.3062 210.085C31.8571 201.926 17.3449 191.733 20.7735 175.997L34.5922 112.571C45.9533 60.4249 86.5322 44.3919 119.43 51.5594C136.438 55.265 152.718 65.4811 162.918 81.6704L161.329 88.9666C159.807 88.8673 158.339 89.6471 157.777 91.0033L153.747 100.896C152.949 102.853 152.962 104.956 153.785 106.522C154.052 107.051 154.432 107.515 154.9 107.88C155.367 108.244 155.91 108.501 156.488 108.63L160.547 109.514C161.707 109.767 162.899 109.487 163.893 108.717C165.289 107.638 166.176 105.731 166.26 103.622L166.704 92.9481C166.766 91.4865 165.762 90.1682 164.334 89.6248L165.214 85.5855C173.101 100.246 176.224 119.265 171.198 142.333L157.38 205.759ZM160.842 92.313C160.873 92.2789 161.013 92.2172 161.18 92.2534L163.1 92.6717C163.253 92.7051 163.353 92.8089 163.373 92.8132L163.377 92.8107L162.933 103.484C162.878 104.739 162.356 105.695 161.855 106.081C161.547 106.321 161.338 106.275 161.263 106.259L157.204 105.375C157.129 105.358 156.927 105.314 156.746 104.968C156.452 104.408 156.368 103.321 156.843 102.158L160.842 92.313ZM187.317 206.893C185.005 217.505 170.32 221.067 154.761 221.758L154.707 221.77C159.19 218.563 162.44 213.879 163.899 207.183L177.719 143.754C187.888 97.0786 167.131 65.6265 139.341 51.6118L139.402 51.6285C144.223 52.0403 148.482 52.5412 151.246 53.1436C183.235 60.113 212.49 91.3507 201.136 143.467L187.317 206.893ZM201.629 187.08C200.862 190.601 199.143 193.194 196.72 195.081L207.655 144.891C210.731 130.771 211.031 118.062 209.214 106.81C213.137 116.738 214.33 128.769 211.288 142.732L201.629 187.08Z" fill="white" fill-opacity="0.28"/>
<path d="M52.8362 123.252L59.7934 124.768L59.0831 128.028L52.126 126.513L52.8362 123.252ZM62.5482 125.368L69.5053 126.884L68.795 130.144L61.8379 128.629L62.5482 125.368ZM72.2536 127.483L79.2107 128.999L78.5004 132.259L71.5433 130.743L72.2536 127.483ZM81.9721 129.6L88.9259 131.115L88.2156 134.376L81.2618 132.86L81.9721 129.6ZM91.6775 131.715L98.6346 133.231L97.9243 136.491L90.9672 134.975L91.6775 131.715ZM101.389 133.831L108.35 135.347L107.64 138.607L100.679 137.091L101.389 133.831ZM111.098 135.946L118.055 137.462L117.345 140.722L110.388 139.206L111.098 135.946ZM120.81 138.062L127.77 139.578L127.06 142.839L120.1 141.322L120.81 138.062ZM130.522 140.178L137.473 141.692L136.762 144.952L129.812 143.438L130.522 140.178ZM140.231 142.293L147.185 143.808L146.474 147.068L139.52 145.553L140.231 142.293ZM47.7115 146.774L54.6686 148.29L53.9583 151.55L47.0012 150.034L47.7115 146.774ZM57.4234 148.89L64.3805 150.406L63.6703 153.666L56.7131 152.15L57.4234 148.89ZM67.1288 151.005L74.086 152.521L73.3757 155.781L66.4185 154.265L67.1288 151.005ZM76.8473 153.122L83.8012 154.637L83.0909 157.897L76.137 156.382L76.8473 153.122ZM86.5527 155.237L93.5098 156.752L92.7996 160.013L85.8424 158.497L86.5527 155.237ZM96.2647 157.353L103.225 158.869L102.515 162.129L95.5544 160.613L96.2647 157.353ZM105.973 159.468L112.93 160.984L112.22 164.244L105.263 162.728L105.973 159.468ZM135.106 165.815L142.06 167.33L141.349 170.59L134.396 169.075L135.106 165.815Z" fill="white" fill-opacity="0.28"/>
<path d="M61.0826 99.7756C50.9566 97.5694 40.9073 104.071 38.6841 114.275L27.3152 166.457C25.0927 176.658 31.5234 186.75 41.6526 188.957L130.022 208.21C140.145 210.415 150.194 203.914 152.416 193.713L163.785 141.531C166.008 131.327 159.578 121.235 149.452 119.029L61.0826 99.7756ZM152.166 163.532L131.91 159.119C133.459 158.217 134.607 156.865 134.975 155.177C135.343 153.488 134.865 151.779 133.829 150.31L154.088 154.724L152.166 163.532ZM124.604 176.65C124.553 177.903 124.028 178.854 123.532 179.238C123.219 179.48 123.011 179.435 122.936 179.418L118.88 178.535C118.805 178.518 118.6 178.474 118.416 178.126C118.124 177.568 118.039 176.484 118.515 175.32L122.521 165.474C122.553 165.44 122.692 165.378 122.855 165.414L124.782 165.833C124.932 165.866 125.033 165.967 125.053 165.971L124.604 176.65ZM127.259 149.842C130.085 150.457 132.127 152.575 131.715 154.466C131.379 156.008 129.496 156.988 127.277 156.969L128.526 151.238L125.52 150.583L124.271 156.314C122.253 155.406 120.944 153.731 121.279 152.193C121.691 150.302 124.429 149.225 127.259 149.842ZM119.17 156.343L40.1049 139.117L42.0234 130.312L121.088 147.538C119.536 148.439 118.39 149.794 118.022 151.486C117.651 153.171 118.13 154.877 119.17 156.343ZM131.446 201.69L43.0732 182.436C36.5399 181.013 32.3964 174.482 33.8355 167.877L38.1434 148.105L44.2431 149.434L44.9534 146.173L38.8569 144.845L39.3939 142.381L123.323 160.666L123.005 162.127C122.218 162.07 121.433 162.268 120.768 162.691L115.685 161.584L114.975 164.844L118.838 165.686L115.426 174.06C114.627 176.017 114.641 178.117 115.464 179.682C116.045 180.793 117.009 181.542 118.17 181.795L122.225 182.679C123.389 182.932 124.578 182.648 125.575 181.879C126.972 180.8 127.858 178.893 127.938 176.786L128.315 167.751L131.638 168.474L132.348 165.214L127.81 164.226C127.381 163.563 126.75 163.057 126.01 162.782L126.329 161.321L151.455 166.795L150.918 169.26L144.818 167.931L144.108 171.191L150.207 172.52L145.899 192.293C144.46 198.898 137.976 203.113 131.446 201.69ZM157.268 140.111L156.042 145.738L149.943 144.409L149.232 147.669L155.332 148.998L154.795 151.463L42.7344 127.048L43.2714 124.583L49.3711 125.912L50.0814 122.652L43.9817 121.323L45.2076 115.696C46.6467 109.091 53.132 104.873 59.6653 106.297L148.034 125.55C154.564 126.976 158.707 133.509 157.268 140.111Z" fill="white" fill-opacity="0.28"/>
</g>
<defs>
<clipPath id="clip0_71_593">
<rect width="213.543" height="213.543" fill="white" transform="translate(45.4587) rotate(12.2911)"/>
</clipPath>
</defs>
</svg>
