<svg width="58" height="44" viewBox="0 0 58 44" fill="none" xmlns="http://www.w3.org/2000/svg">
<path d="M55.3948 3.11665C54.581 2.59916 53.6266 2.22435 52.5998 2.01899C51.573 1.81363 50.499 1.78279 49.4547 1.92865L34.5197 3.98749C32.3825 4.27982 30.4378 5.11048 29 6.34515C27.5633 5.10845 25.6185 4.27579 23.4803 3.98199L8.54533 1.92315C7.50077 1.77926 6.4273 1.81115 5.40078 2.01657C4.37425 2.222 3.41972 2.59594 2.60464 3.11199C1.78955 3.62803 1.13381 4.27357 0.683739 5.003C0.233669 5.73242 0.000257968 6.52794 0 7.33332L0 38.1957L29 42.1978L58 38.1957V7.33332C58.0001 6.52853 57.7668 5.73357 57.3165 5.00485C56.8663 4.27613 56.2102 3.63148 55.3948 3.11665ZM26.5833 38.1333L4.83333 35.1377V7.33332C4.83363 7.0649 4.91163 6.79981 5.0618 6.55676C5.21197 6.31372 5.43066 6.09865 5.70242 5.92676C5.97418 5.75487 6.29238 5.63035 6.63454 5.56199C6.9767 5.49363 7.33447 5.48311 7.68258 5.53115L22.6152 7.58999C23.7288 7.7437 24.736 8.18905 25.4612 8.8484C26.1864 9.50775 26.5835 10.3393 26.5833 11.198V38.1333ZM53.1667 35.134L31.4167 38.1333V11.198C31.4165 10.3393 31.8136 9.50775 32.5388 8.8484C33.264 8.18905 34.2712 7.7437 35.3848 7.58999L50.3174 5.53115C50.6655 5.48311 51.0233 5.49363 51.3655 5.56199C51.7076 5.63035 52.0258 5.75487 52.2976 5.92676C52.5693 6.09865 52.788 6.31372 52.9382 6.55676C53.0884 6.79981 53.1664 7.0649 53.1667 7.33332V35.134Z" fill="#374957"/>
</svg>
