<svg width="62" height="47" viewBox="0 0 62 47" fill="none" xmlns="http://www.w3.org/2000/svg">
<g clip-path="url(#clip0_209_2655)">
<path d="M26 23.4999C28.5712 23.4999 31.0846 22.8108 33.2224 21.5197C35.3603 20.2285 37.0265 18.3934 38.0104 16.2464C38.9944 14.0994 39.2518 11.7368 38.7502 9.45757C38.2486 7.1783 37.0105 5.08465 35.1924 3.44138C33.3743 1.79811 31.0579 0.679033 28.5362 0.225656C26.0144 -0.22772 23.4006 0.00496904 21.0251 0.894299C18.6497 1.78363 16.6194 3.28966 15.1909 5.22193C13.7624 7.15421 13 9.42595 13 11.7499C13.0034 14.8652 14.3742 17.8521 16.8114 20.055C19.2486 22.2578 22.5532 23.4968 26 23.4999ZM26 3.91655C27.7141 3.91655 29.3897 4.37597 30.8149 5.2367C32.2402 6.09744 33.351 7.32084 34.007 8.7522C34.6629 10.1836 34.8345 11.7586 34.5001 13.2781C34.1657 14.7976 33.3403 16.1934 32.1283 17.2889C30.9162 18.3844 29.372 19.1305 27.6908 19.4327C26.0096 19.735 24.267 19.5798 22.6834 18.9869C21.0998 18.3941 19.7462 17.39 18.7939 16.1019C17.8416 14.8137 17.3333 13.2992 17.3333 11.7499C17.3333 9.67235 18.2464 7.67991 19.8717 6.21088C21.4971 4.74185 23.7015 3.91655 26 3.91655Z" fill="#374957"/>
<path d="M26 27.4178C20.83 27.423 15.8735 29.2816 12.2178 32.5858C8.56203 35.89 6.50573 40.37 6.5 45.0428C6.5 45.5622 6.72827 46.0603 7.1346 46.4276C7.54093 46.7949 8.09203 47.0012 8.66667 47.0012C9.2413 47.0012 9.7924 46.7949 10.1987 46.4276C10.6051 46.0603 10.8333 45.5622 10.8333 45.0428C10.8333 41.4072 12.4312 37.9204 15.2755 35.3496C18.1198 32.7788 21.9776 31.3345 26 31.3345C30.0225 31.3345 33.8802 32.7788 36.7245 35.3496C39.5688 37.9204 41.1667 41.4072 41.1667 45.0428C41.1667 45.5622 41.3949 46.0603 41.8013 46.4276C42.2076 46.7949 42.7587 47.0012 43.3333 47.0012C43.908 47.0012 44.4591 46.7949 44.8654 46.4276C45.2717 46.0603 45.5 45.5622 45.5 45.0428C45.4943 40.37 43.438 35.89 39.7822 32.5858C36.1265 29.2816 31.17 27.423 26 27.4178Z" fill="#374957"/>
</g>
<g clip-path="url(#clip1_209_2655)">
<path d="M49.5 14.4999C50.7361 14.4999 51.9445 14.1334 52.9723 13.4466C54.0001 12.7599 54.8012 11.7838 55.2742 10.6417C55.7473 9.49967 55.8711 8.24301 55.6299 7.03063C55.3888 5.81825 54.7935 4.7046 53.9194 3.83052C53.0453 2.95645 51.9317 2.36119 50.7193 2.12003C49.5069 1.87888 48.2503 2.00265 47.1082 2.47569C45.9662 2.94874 44.9901 3.74982 44.3033 4.77763C43.6166 5.80543 43.25 7.01381 43.25 8.24994C43.2517 9.90704 43.9107 11.4958 45.0824 12.6675C46.2542 13.8393 47.8429 14.4983 49.5 14.4999ZM49.5 4.08327C50.3241 4.08327 51.1297 4.32765 51.8149 4.78549C52.5001 5.24332 53.0341 5.89407 53.3495 6.65543C53.6649 7.41679 53.7474 8.25456 53.5866 9.06282C53.4258 9.87107 53.029 10.6135 52.4463 11.1962C51.8636 11.7789 51.1211 12.1758 50.3129 12.3365C49.5046 12.4973 48.6668 12.4148 47.9055 12.0994C47.1441 11.7841 46.4934 11.25 46.0355 10.5648C45.5777 9.87961 45.3333 9.07403 45.3333 8.24994C45.3333 7.14487 45.7723 6.08506 46.5537 5.30366C47.3351 4.52226 48.3949 4.08327 49.5 4.08327Z" fill="#374957"/>
<path d="M49.5 16.584C47.0144 16.5867 44.6315 17.5753 42.8739 19.3329C41.1164 21.0905 40.1278 23.4734 40.125 25.959C40.125 26.2353 40.2347 26.5002 40.4301 26.6956C40.6254 26.8909 40.8904 27.0007 41.1667 27.0007C41.4429 27.0007 41.7079 26.8909 41.9032 26.6956C42.0986 26.5002 42.2083 26.2353 42.2083 25.959C42.2083 24.0251 42.9766 22.1705 44.344 20.803C45.7115 19.4355 47.5661 18.6673 49.5 18.6673C51.4339 18.6673 53.2885 19.4355 54.656 20.803C56.0234 22.1705 56.7917 24.0251 56.7917 25.959C56.7917 26.2353 56.9014 26.5002 57.0968 26.6956C57.2921 26.8909 57.5571 27.0007 57.8333 27.0007C58.1096 27.0007 58.3746 26.8909 58.5699 26.6956C58.7653 26.5002 58.875 26.2353 58.875 25.959C58.8722 23.4734 57.8836 21.0905 56.1261 19.3329C54.3685 17.5753 51.9856 16.5867 49.5 16.584Z" fill="#374957"/>
</g>
<defs>
<clipPath id="clip0_209_2655">
<rect width="52" height="47" fill="white"/>
</clipPath>
<clipPath id="clip1_209_2655">
<rect width="25" height="25" fill="white" transform="translate(37 2)"/>
</clipPath>
</defs>
</svg>
