<svg width="55" height="55" viewBox="0 0 55 55" fill="none" xmlns="http://www.w3.org/2000/svg">
<g clip-path="url(#clip0_81_1130)">
<path d="M6.875 50.3617C6.26721 50.3617 5.68432 50.1202 5.25455 49.6905C4.82478 49.2607 4.58333 48.6778 4.58333 48.07V0H0V48.07C0 49.8934 0.724328 51.642 2.01364 52.9314C3.30295 54.2207 5.05164 54.945 6.875 54.945H55V50.3617H6.875Z" fill="#374957"/>
<path d="M16.0418 27.5H11.4585V43.5417H16.0418V27.5Z" fill="#374957"/>
<path d="M27.4999 22.9163H22.9165V43.5413H27.4999V22.9163Z" fill="#374957"/>
<path d="M38.9584 29.7913H34.375V43.5413H38.9584V29.7913Z" fill="#374957"/>
<path d="M50.4169 20.625H45.8335V43.5417H50.4169V20.625Z" fill="#374957"/>
<path d="M25.2079 10.1158L36.6663 21.5741L54.3281 3.91226L51.0877 0.671844L36.6663 15.0933L25.2079 3.63497L12.1294 16.7135L15.3698 19.9539L25.2079 10.1158Z" fill="#374957"/>
</g>
<defs>
<clipPath id="clip0_81_1130">
<rect width="55" height="55" fill="white"/>
</clipPath>
</defs>
</svg>
